# xmcd
#
# Track frame offsets:
# 150
# 20065
# 36833
# 50290
# 62928
# 77992
# 94540
# 107888
# 123485
# 135223
# 151611
# 174264
# 192834
# 210974
# 232289
# 256046
# 278065
# 297368
# 313257
#
# Disc length: 4413 seconds
#
# Revision: 0
# Processed by: cddbd v1.5.2PL0 Copyright (c) Steve Scherf et al.
# Submitted via: Audion 3.0.2 (http://www.panic.com/audion/)
#
DISCID=05113b13
DTITLE=Max Brooks - The Zombie Survival Guide [CD5]
DYEAR=1900
DGENRE=
TTITLE0=Disc 5 - Track 1
TTITLE1=Disc 5 - Track 2
TTITLE2=Disc 5 - Track 3
TTITLE3=Disc 5 - Track 4
TTITLE4=Disc 5 - Track 5
TTITLE5=Disc 5 - Track 6
TTITLE6=Disc 5 - Track 7
TTITLE7=Disc 5 - Track 8
TTITLE8=Disc 5 - Track 9
TTITLE9=Disc 5 - Track 10
TTITLE10=Disc 5 - Track 11
TTITLE11=Disc 5 - Track 12
TTITLE12=Disc 5 - Track 13
TTITLE13=Disc 5 - Track 14
TTITLE14=Disc 5 - Track 15
TTITLE15=Disc 5 - Track 16
TTITLE16=Disc 5 - Track 17
TTITLE17=Disc 5 - Track 18
TTITLE18=Disc 5 - Track 19
EXTD=
EXTT0=
EXTT1=
EXTT2=
EXTT3=
EXTT4=
EXTT5=
EXTT6=
EXTT7=
EXTT8=
EXTT9=
EXTT10=
EXTT11=
EXTT12=
EXTT13=
EXTT14=
EXTT15=
EXTT16=
EXTT17=
EXTT18=
PLAYORDER=
